<svg id="Layer_5_Layer_1_Layer_7_A_Layer_4_Layer_2_copy_2_Layer_6_Image" data-name="Layer 5 + Layer 1 + Layer 7 + A + Layer 4 + Layer 2 copy 2 + Layer 6 Image" xmlns="http://www.w3.org/2000/svg" viewBox="0 0 267.97 312.96"><title>l_a</title><path d="M1160.58,1272.78h-70a31.89,31.89,0,0,1,1.07-3.77q7.69-18.39,15.45-36.75,57.24-136.21,114.46-272.44h1a48.67,48.67,0,0,0,1.5,4.66q48.08,110.07,96.17,220.11,19.23,44.07,38.32,88.19h-70c-8.6-20.89-17.14-41.82-25.94-62.62-.59-1.4-3.22-2.73-4.91-2.74-22.65-.18-45.3-.08-68-.17-2.91,0-4.41.84-5.48,3.71-4.13,11-8.65,22-12.89,33C1167.71,1253.52,1164.18,1263.16,1160.58,1272.78Z" transform="translate(-1090.59 -959.82)"/></svg>