<svg id="Layer_5_Layer_1_Layer_7_A_Layer_4_Layer_2_copy_2_Layer_6_Image" data-name="Layer 5 + Layer 1 + Layer 7 + A + Layer 4 + Layer 2 copy 2 + Layer 6 Image" xmlns="http://www.w3.org/2000/svg" xmlns:xlink="http://www.w3.org/1999/xlink" viewBox="0 0 774 774"><defs><style>.cls-1{fill:#e5e5e5;}.cls-2{fill:url(#radial-gradient);}</style><radialGradient id="radial-gradient" cx="1218.68" cy="1153.56" r="387" gradientUnits="userSpaceOnUse"><stop offset="0.44" stop-color="#005c7c"/><stop offset="1"/></radialGradient></defs><title>loutline</title><path class="cls-1" d="M1492.33,879.91a387,387,0,0,0-660.65,273.65c0,213.73,173.27,387,387,387a387,387,0,0,0,273.65-660.65Zm-273.65,650.32c-208,0-376.67-168.64-376.67-376.67S1010.65,776.9,1218.68,776.9s376.66,168.64,376.66,376.66S1426.7,1530.23,1218.68,1530.23Z" transform="translate(-831.68 -766.56)"/><path class="cls-2" d="M1218.68,766.56a387,387,0,0,0-387,387c0,213.73,173.27,387,387,387a387,387,0,0,0,0-774Zm0,763.67c-208,0-376.67-168.64-376.67-376.67S1010.65,776.9,1218.68,776.9s376.66,168.64,376.66,376.66-168.64,376.67-376.66,376.67Z" transform="translate(-831.68 -766.56)"/><path d="M909.72,1379.43l46.69-35.13c57.3,75,132.61,118.78,226.8,130.71-1.53,19.39-3,38.58-4.62,58.51-51.13-5.39-98.73-20.07-143.34-44.5A383.77,383.77,0,0,1,909.72,1379.43Z" transform="translate(-831.68 -766.56)"/><path d="M1365.13,1505.24l-22.62-53.79c86.83-38.24,146-102.18,179.83-191l55.22,18.85a386.92,386.92,0,0,1-64.12,114.72C1471.55,1445.9,1417.92,1483.84,1365.13,1505.24Z" transform="translate(-831.68 -766.56)"/><path d="M1458.38,1151.4c-.08,133.71-108,242.14-241.08,242.16-133.3,0-241.19-108.65-240.95-242.66.24-133.76,108.3-242.18,241.19-242S1458.45,1017.83,1458.38,1151.4Zm-470.46.06c.11,127.24,102.82,230.54,229.27,230.6,126.64.06,229.47-103.41,229.47-230.92s-102.85-230.6-229.8-230.5C1090.42,920.74,987.81,1024.19,987.92,1151.46Z" transform="translate(-831.68 -766.56)"/><path d="M896.49,1194.88c-18,2.44-35.52,4.83-53.07,7.19-1.35.18-2.72.22-5,.39-.92-12.11-1.85-23.93-2.7-35.76a103.87,103.87,0,0,1-.37-10.43c.84-30.48,2.36-60.88,9.93-90.65A442.68,442.68,0,0,1,864.76,1006,379,379,0,0,1,911.3,924c1.8-2.41,4.59-4.12,7-6,3.58-2.76,7.27-5.39,11.74-8.69l39.66,32.15C910.16,1015.71,885.48,1099.74,896.49,1194.88Z" transform="translate(-831.68 -766.56)"/><path d="M1594.53,1089.54,1537,1100.15c-17-93.73-63.71-167.6-142.76-221.38L1425,831.48C1517.9,893.88,1573.72,979.71,1594.53,1089.54Z" transform="translate(-831.68 -766.56)"/><path d="M1385.84,809.55c-8.25,17-16.21,33.39-24.42,50.32-2-.91-3.75-1.65-5.44-2.43q-123.33-57.06-251.16-10.93c-3.8,1.36-5.47,1-7-3-5.29-14.15-10.9-28.19-16.55-42.21-1.47-3.66-1.37-5.38,3.18-6.63,13.5-3.68,26.81-8.08,40.23-12.09,2.87-.86,6-1,8.8-2,1.7-.58,3-2,3.07,1.15a12.46,12.46,0,0,0,2.4-.44c.07-5.53,5.12-3.73,7.37-4.1,13.81-2.3,27.72-4.37,41.67-5.43a421.91,421.91,0,0,1,43.4-1.2c11.2.3,22.34,2.34,33.51,3.64,7.11.83,14.28,1.33,21.29,2.69,11.25,2.18,22.56,4.34,33.51,7.62,15,4.49,29.83,9.8,44.56,15.2C1371.44,802.4,1378.22,806.05,1385.84,809.55Z" transform="translate(-831.68 -766.56)"/><path d="M1473.39,963.13l-37,28c-1.41-1.74-2.53-3-3.58-4.4C1389,930.05,1331.94,895.18,1261.24,883c-5.06-.87-5.74-2.71-5-7.19,1.88-11.43,3.67-22.9,4.82-34.43.55-5.46,2.64-6,7.39-5.17q80.07,13.59,144.13,63.4a309,309,0,0,1,57.67,59C1471.19,959.85,1472,961.17,1473.39,963.13Z" transform="translate(-831.68 -766.56)"/><path d="M947.15,1132.62c-3.85,76.16,19,142.53,68.4,200.27L981,1364.71c-58.14-67.74-85-145.49-80.65-235.08Z" transform="translate(-831.68 -766.56)"/><path d="M1157.7,885.66C1083.81,904,1027.13,945,986.29,1009.11L946.64,985c1-1.82,1.63-3.23,2.46-4.52q69.07-107.1,192.4-139.27c4.22-1.11,5.83-.39,6.77,4C1151.14,858.55,1154.44,871.81,1157.7,885.66Z" transform="translate(-831.68 -766.56)"/><path d="M1332.34,1397.73l20.38,42.09a308,308,0,0,1-125.51,30.39,314.6,314.6,0,0,1-121.15-20l15.74-44C1193.1,1431.3,1263.06,1429.1,1332.34,1397.73Z" transform="translate(-831.68 -766.56)"/><path d="M1470.32,1344.36l-37.65-28.17a275.19,275.19,0,0,0,52.34-205l46.38-7.71C1542.81,1192,1523,1271.83,1470.32,1344.36Z" transform="translate(-831.68 -766.56)"/><path d="M1237.21,1476.14c8.19-.92,15.69-1.54,23.11-2.65,8.85-1.33,17.63-3,26.42-4.7,2.45-.46,4.35-.84,5.11,2.47,4.07,17.75,8.29,35.47,12.64,54a377.25,377.25,0,0,1-62.09,9.4C1240.67,1515.11,1239,1496,1237.21,1476.14Z" transform="translate(-831.68 -766.56)"/><path d="M875.49,1325l-23.84-59.4,56.1-17.5c6.69,16.71,13.25,33.07,20.06,50.07Z" transform="translate(-831.68 -766.56)"/><path d="M1536.91,1208.2c1.32-17.51,2.51-34.11,4-50.69.11-1.15,2.3-3,3.57-3,17-.47,34-.66,51-1,2.54,0,4,.61,3.74,3.57-.49,6.48-.56,13-1.14,19.46q-1.63,18.33-3.77,36.61c-.15,1.28-2.26,3.49-3.18,3.36C1573,1213.89,1554.79,1211,1536.91,1208.2Z" transform="translate(-831.68 -766.56)"/><path d="M1050.91,871.41l-43.62,31.39c-2.42-2.78-5.15-5.9-7.86-9-8.51-9.84-16.89-19.78-25.58-29.45-2.66-3-2-4.92.63-6.86q10.49-7.68,21.13-15.15,11-7.78,22.15-15.45c2.08-1.44,4.39-3,6.28.08C1033.07,841.76,1042,856.64,1050.91,871.41Z" transform="translate(-831.68 -766.56)"/><path d="M1500.85,1006.58l19.29,46.66-44.46,15.36-16.46-40.45Z" transform="translate(-831.68 -766.56)"/><path d="M953.31,1089.24,907.51,1079c5.11-16.33,10-32.08,15.12-48.28l43.82,16.89C962.08,1061.48,957.83,1074.93,953.31,1089.24Z" transform="translate(-831.68 -766.56)"/><path d="M1404.06,1349c10.48,11,21.07,22.15,32.44,34.11l-39,31.7-27.27-38.28Z" transform="translate(-831.68 -766.56)"/><path d="M1017.78,1400.42l29-37.06,35.73,24.65-23.11,41Z" transform="translate(-831.68 -766.56)"/><path d="M1197.14,833.15H1248c-1.46,16.23-2.81,31.36-4.22,47.11-3.84-.18-7.26-.43-10.69-.48-9.31-.13-18.62,0-27.92-.39-1.48-.06-4-1.74-4.17-2.87C1199.52,862.22,1198.39,847.88,1197.14,833.15Z" transform="translate(-831.68 -766.56)"/><path d="M1094.53,1178c-15.85-60.87,23.67-131.63,87.33-147.92.35,1.66,1.55,3.87.9,4.85-4.15,6.29-6,14.34-13.45,18.16-40.76,20.87-64,61.94-60.51,107.09a52.47,52.47,0,0,0,1.22,9.38c1,3.72-.48,5-3.87,5.67C1102.23,1175.93,1098.39,1177,1094.53,1178Z" transform="translate(-831.68 -766.56)"/><path d="M1271.42,1249.2l6.4,15.39c-21.74,16.74-79.08,18.05-106.49,2.29.87-2.47,1.73-5.07,2.71-7.63s2.11-5.14,3.35-8.15C1208.91,1264.36,1240,1263.94,1271.42,1249.2Z" transform="translate(-831.68 -766.56)"/><path d="M1372.54,1187.66c1.4-10.82,2.69-20.86,4-30.82h35.28c-1.68,13.22-3.25,25.59-4.92,38.72Z" transform="translate(-831.68 -766.56)"/><path d="M1023.39,1134.38c2.46-13.16,4.72-25.29,7.13-38.2l33.87,9.58c-2,10.46-3.84,20.53-5.86,31.31Z" transform="translate(-831.68 -766.56)"/><path d="M1096.68,1255.94l-26.56,23.11-22.36-31.52,30.5-17.65Z" transform="translate(-831.68 -766.56)"/><path d="M1116.77,1027l-22.37-27.3,32-21.38,16.92,31Z" transform="translate(-831.68 -766.56)"/><path d="M1166.13,1341.68c4-13.37,7.38-25.15,11.13-36.81.32-1,3.06-1.91,4.46-1.63,8.61,1.69,17.13,3.88,25.74,5.58,2.89.58,3.83,1.8,3.51,4.83-1.16,10.87-2.09,21.78-3.36,32.63-.15,1.24-2.1,3.39-2.89,3.25C1192.06,1347.14,1179.45,1344.45,1166.13,1341.68Z" transform="translate(-831.68 -766.56)"/><path d="M1351.58,1065l-19.19-24.38,25-24.8,23.43,29.32Z" transform="translate(-831.68 -766.56)"/><path d="M1350.69,1232.15c-1.46-.78-2.26-1.12-3-1.6a8.22,8.22,0,0,1-1.17-1c4.26-9.77,8.76-19.07,12.36-28.72,2.57-6.86,4.15-14.13,5.72-21.32.87-4,2.53-4.57,6.24-2.54A156,156,0,0,1,1350.69,1232.15Z" transform="translate(-831.68 -766.56)"/><path d="M1344.77,1061.48l-4.58,3.38a152.59,152.59,0,0,0-40.87-39.9l3.11-4.76A157.57,157.57,0,0,1,1344.77,1061.48Z" transform="translate(-831.68 -766.56)"/><path d="M1359.8,1088.46a141.42,141.42,0,0,1,10.92,36.21,173.93,173.93,0,0,1,1.92,17.79c.08,1.17-1.49,2.45-2.3,3.68-1.1-1.17-3.09-2.28-3.17-3.51a151.62,151.62,0,0,0-11.28-49.06C1354.23,1089.61,1356.61,1089.13,1359.8,1088.46Z" transform="translate(-831.68 -766.56)"/><path d="M1099.51,1245.76l-3.94,3a151.89,151.89,0,0,1-27.34-52.09c2.49-1.24,4.5-3.39,6.13.53,3.49,8.41,6.57,17,10.73,25.1C1089.17,1230.18,1094.37,1237.5,1099.51,1245.76Z" transform="translate(-831.68 -766.56)"/><path d="M1143.77,1019.74c-1-1.59-1.8-2.86-2.91-4.63,2.08-1.19,3.82-2.27,5.63-3.2a159,159,0,0,1,45.83-15.27c3.93-.68,5.65.34,5.14,5A157.32,157.32,0,0,0,1143.77,1019.74Z" transform="translate(-831.68 -766.56)"/><path d="M1116,1032.45l3.69,4.31a153.72,153.72,0,0,0-35.52,44.74l-5-2.71A158,158,0,0,1,1116,1032.45Z" transform="translate(-831.68 -766.56)"/><path d="M1062.26,1165.69a156.81,156.81,0,0,1,5.6-58.43l4.91,1.37c-1.49,8.08-3.48,15.76-4.19,23.56-.88,9.77-.92,19.63-.9,29.45C1067.68,1165.52,1066.57,1166.8,1062.26,1165.69Z" transform="translate(-831.68 -766.56)"/><path d="M1307.67,1302.07h30.9l.65,1.07-21.65,15.42Z" transform="translate(-831.68 -766.56)"/><path d="M1275.1,1006c-.44,4.73-2.22,5-5.77,4-11.12-3.07-22.32-5.88-33.61-8.22-3.86-.8-6.15-2-6.39-6.54A145.42,145.42,0,0,1,1275.1,1006Z" transform="translate(-831.68 -766.56)"/><path d="M1266.37,999,1236,992.63c1-11.39,2.06-22.67,3.18-35L1276,965C1272.61,976.91,1269.49,987.93,1266.37,999Z" transform="translate(-831.68 -766.56)"/><path d="M1299.25,1291c5.15,10.24,10.24,20.38,15.84,31.54l32.55-20.54L1326.2,1274Z" transform="translate(-831.68 -766.56)"/><path d="M1173.6,1292.06l-1.51,4.7a151.9,151.9,0,0,1-52.29-27c1.33-2.44,1.74-5.36,5.33-3.08,7.68,4.88,14.16,10.18,22.19,14.39S1164.66,1288.25,1173.6,1292.06Z" transform="translate(-831.68 -766.56)"/><path d="M1270.88,1290.55c.48,1.4,1,2.82,1.6,4.67a151.8,151.8,0,0,1-58.06,9.54c-.39-2.74-1.8-5.33,2.44-5.64,9.08-.66,18.24-.88,27.21-2.29C1252.85,1295.45,1261.44,1292.82,1270.88,1290.55Z" transform="translate(-831.68 -766.56)"/><path d="M1341.68,1250.87l-4.31-3.7a154.06,154.06,0,0,1-44.74,35.53c1,1.81,1.69,3.13,2.71,5A158.19,158.19,0,0,0,1341.68,1250.87Z" transform="translate(-831.68 -766.56)"/><path d="M1350.61,1178c15.85-60.87-23.66-131.63-87.33-147.92-.34,1.66-1.54,3.87-.89,4.85,4.15,6.29,6,14.34,13.44,18.16,40.77,20.87,64,61.94,60.51,107.09a53.39,53.39,0,0,1-1.21,9.38c-1,3.72.48,5,3.87,5.67C1342.91,1175.93,1346.75,1177,1350.61,1178Z" transform="translate(-831.68 -766.56)"/></svg>