<svg id="Layer_5_Layer_1_Layer_7_A_Layer_4_Layer_2_copy_2_Layer_6_Image" data-name="Layer 5 + Layer 1 + Layer 7 + A + Layer 4 + Layer 2 copy 2 + Layer 6 Image" xmlns="http://www.w3.org/2000/svg" viewBox="0 0 1106.74 701.07"><title>wings</title><path d="M1762.94,1055.07c-.3,6.15-.59,11.88-.88,17.6a7.69,7.69,0,0,0-.06,2.48c.73,2.48,1.68,5.41-1.71,6.16-3.56.8-7.82,1.92-9.8-3.18a27.5,27.5,0,0,0-6.84,18.36c0,2.12-2.45,4.2-3.82,6.36,0,10.89.17,22.25-.17,33.6-.06,1.75-2.21,4.39-3.89,4.86s-4.23-1-5.73-2.31c-2-1.8-3.34-4.32-5.14-6.77-.63,3.34-1.24,6.9-2,10.43-1,4.65-1.87,9.33-3.17,13.89a192.48,192.48,0,0,1-6,18.44c-1,2.51-3.44,4.44-5.23,6.63-2-2-4-4-5.9-6-.68-.7-1.3-1.47-1.87-2.11-5.31,2-10.14,4.17-9,11.23.25,1.53-.49,3.24-.85,4.85-2,8.85-4,17.71-6.2,26.51-.33,1.33-1.86,3.16-3,3.28-1.51.16-4-.68-4.65-1.87-3.42-5.93-6.49-12.08-9.46-18.26-.82-1.69-.86-3.76-1.26-5.66l-1.4-.46c-1,3.32-2.08,6.63-3.06,10-2.67,9.07-4.61,18.06-9.37,26.77-5.62,10.3-13.35,20.53-12.72,33.51a12.64,12.64,0,0,1-.78,3.37c-2,8.31-2,8.31-10.19,7.82-5.42,11.6-10.57,23.37-16.44,34.77-2,3.94-5.5,7.35-8.92,10.31s-7.41.84-7.66-3.64c-.2-3.48,0-7,0-9.57-3.58,9.54-7.22,19.9-11.4,30-1.47,3.59-4.18,6.69-6.44,9.93s-5.06,4.17-9.13,1.27c-4.33,7.38-8.4,14.59-12.78,21.61a27.21,27.21,0,0,1-6.3,7.42c-5.78,4.37-9.57,2.47-10.13-5.25-6.69,11-12.87,21.64-19.64,31.94-4,6.15-9,11.68-13.6,17.49a.7.7,0,0,1-.4.28c-15.23,3.72-19.89,17.81-28,28.52-2.89,3.8-5.31,3.78-9.06,1-6.18-4.62-5.06-11.06-5-17.31,0-1.11.16-2.22.31-4.38-2.84,4.2-5,7.67-7.46,11-3.54,4.89-7.08,9.79-10.94,14.42-1,1.24-3.13,1.88-4.85,2.19-3.23.59-6.53.79-9.81,1.06-6.24.53-5-4.28-5.58-9.08-1.87,1.46-3.64,2.24-4.48,3.6-4,6.52-7.55,13.38-11.76,19.78-4.51,6.84-9.5,13.38-14.47,19.89a46.86,46.86,0,0,1-7.34,7.87,174.13,174.13,0,0,1-15.21,11.12c-1.72,1.12-4.6,1.77-6.35,1.09-1.23-.48-2.23-3.71-1.94-5.49a99.87,99.87,0,0,1,3.67-15.32c2.54-7.76,5.55-15.36,8.74-24.08-8.39,10.74-15.61,21.11-24,30.42-8.54,9.46-18.14,18-27.56,26.61-1.31,1.2-4.61,1.44-6.27.63-1.13-.55-1.67-3.82-1.32-5.66,3.12-16,7.15-31.75,15.73-45.93a5.32,5.32,0,0,0,.39-3.23c-2.12-16-.05-30.76,11.48-43.12a22,22,0,0,0,4-6.27c8.73-20.34,22.61-37.41,34.93-55.48a26.29,26.29,0,0,0,1.79-3,9,9,0,0,0,.14-2.33c-5.63,4.21-10.92,7.78-15.74,11.9-4.64,4-10.62,6.31-13.38,4.45-2.43-1.64-2.29-10-.11-14.64q11.44-24.18,22.6-48.49c.92-2,.73-4.52,1.26-6.75a101,101,0,0,1,3.11-11.56c3.24-8.75,6.8-17.4,10.23-26.08l-1.4-1.56c-4.33,1.26-8.61,2.78-13,3.68-2.37.48-6.44.74-7.11-.42-1.14-2-.74-5.31-.08-7.83,1.71-6.63,5.94-12.18,7.79-19,1.79-6.6,6.6-12.38,10-18.56,3.73-6.78,6.9-13.92,11.15-20.36q14.06-21.32,29-42c3.54-4.89,8.59-8.67,12.41-13.39,1.82-2.25,2.09-5.7,3.6-8.29,2.13-3.64-1.29-5.1-2.12-7.61-1.25-3.77-1.87-8.43-.8-12.16,4.45-15.59,10.81-30.49,22.73-41.93,10.76-10.32,22.55-19.55,33.43-29.74,4.77-4.46,8.42-10.12,12.24-15.63-5.4,3.45-11,6.69-16.15,10.42-3.66,2.63-7.08,2.1-10-.35s-1.47-5.15.26-8c4.62-7.57,8.9-15.35,13.3-23-7.3-4.53-8.44-8-3.59-14.16s10.62-11.19,16-16.72a45.14,45.14,0,0,0,4.53-4.54c2-2.71,2.52-5.18-.23-8.36-4.39-5.08-4.18-7.27,1-11.71a173.91,173.91,0,0,1,15.94-11.6c2.18-1.47,2.71-2.56.81-4.64-5.51-6-11.22-11.95-16.26-18.38a219.11,219.11,0,0,1-13.88-20.26c-2.06-3.34.09-6.23,4-7.81,4.13-1.69,8.56-3.4,11.79-6.3,3.55-3.18,7.47-3.86,11.68-4.61,2.6-.46,5.14-1.42,7.75-1.67a60.49,60.49,0,0,1,11.17-.29c14.66,1.37,27.81-6.57,33.19-22.54.31-.93.2-2.26.82-2.79,7.4-6.43,9.71-16.08,15.14-23.76,5.84-8.29,13.36-7.86,20.59-.88a55.75,55.75,0,0,1,14.17,21.14,104.38,104.38,0,0,0,18.79,32.47,42.33,42.33,0,0,0,7.13,6c7.08,5.15,14,10.48,21.45,15.13,5.41,3.41,11.42,5.86,17.17,8.74a1.52,1.52,0,0,1,.41.29c7.9,8.58,15.92,17.06,23.62,25.82,1.83,2.08,2.29,5.3,3.92,7.62,4.52,6.44,9.64,12.48,13.9,19.08a180,180,0,0,1,10,18.49c2.71,5.54,5.72,11.12,7.18,17,1.67,6.77,5.46,12.86,4,20.86-.92,5,3.15,11,5.11,16.58.43,1.22,1.5,2.2,2,3.39C1771.6,1051.86,1770.25,1054.28,1762.94,1055.07Z" transform="translate(-663.25 -826.46)"/><path d="M894.45,1375.07c-1.38,1.92-2.87,5.53-4.13,5.44-3.16-.2-7.33-1.21-9.07-3.46-3.68-4.74-5.82-10.63-9-15.77-2.32-3.7-5.37-7-8.17-10.48-5.56,1.48-9.95-.6-13-7.67-5-11.56-9.39-23.39-13.55-33.86,0,2,.17,5.53,0,9.08-.24,4.21-4.23,6.47-7.33,3.77a43.55,43.55,0,0,1-9.44-11.11c-4.64-8.33-8.48-17.1-12.58-25.72-1.27-2.68-2.29-5.48-3.42-8.21-8.91-.33-10.49-1.69-11.18-11.57-.57-8.18-3.66-15.19-7.3-22.45-6.21-12.39-13.86-24.35-15-38.82-.24-3-1.9-5.88-4-8.59-.72,2.79-1.24,5.65-2.21,8.36-1.24,3.46-1.43,7.57-5.9,9.25-1,.36-.78,3.2-1.74,4.41-1.32,1.66-3.07,3.54-4.94,4-1,.22-3.44-2.3-3.8-3.9-2.59-11.41-4.75-22.92-7.18-34.36-.57-2.65-1.18-5.48-5-5.64-1.15,0-2.25-1.28-3.89-2.29-.8,1.45-1.36,3.21-2.51,4.39-1.54,1.58-3.49,3.62-5.36,3.72-1.4.08-3.51-2.33-4.32-4.08-1.45-3.12-2-6.64-3.2-9.91-3.77-10.6-7.85-21.11-8-32.62a6.64,6.64,0,0,0-.86-2.36c-1.86,2.6-3.58,5.61-5.93,8a5.59,5.59,0,0,1-5,1c-1.58-.6-3.61-2.57-3.72-4.06-.8-11.53-2.94-23.13.83-34.86-4.15-1.69-4.77-5-5.32-9.06-.7-5.28-3.14-10.33-5.5-15.43-2.86,5.25-7.06,3.9-10.81,3.32-.9-.14-2.19-1.87-2.22-2.89-.18-7.68-.1-15.36-.1-23.38l-2.17-.22c-4.38-.48-6.07-2.57-4.57-6.71,1.41-3.86,3.61-7.43,5.46-11.13,2.7-5.42,5-10.86,2.37-17.06a4.45,4.45,0,0,1-.06-2.95c1.81-5.06,3.74-10.08,5.7-15.09,1.65-4.22,3.48-8.37,5.1-12.61a95.76,95.76,0,0,1,20.31-32.92c3.55-3.71,5-9.36,8-13.71A130.65,130.65,0,0,1,721.3,932c2.52-2.8,6.06-4.84,8-7.93,5-7.92,14.26-9.09,21.06-14.08,7.84-5.77,16-11.07,23.91-16.78,14.25-10.33,21-25.79,26.77-41.45,3.25-8.81,9.63-14.52,15.89-20.43,5.1-4.83,12.85-3.36,16.83,2.43,2.62,3.82,4.65,8,7.12,12s5.5,7.76,7.86,11.87c2,3.41,3.25,7.18,4.91,10.76,5,10.74,20.46,18.41,32.06,15,1.79-.53,3.94-.17,5.86.16a100.76,100.76,0,0,1,12.61,2.63,63.07,63.07,0,0,1,9.64,4.36c4.15,2.07,8.09,4.61,12.37,6.33s5.83,5.54,2.89,9.18c-1.25,1.55-2.55,3.45-4.25,4.17-8.24,3.51-11.78,11.74-17.76,17.48-2.53,2.44-3.26,6.78-4.76,10.27-1.2,2.79-3.87,6.19-3.08,8.24.88,2.28,5.11,3.1,7.56,5,3.8,2.93,7.33,6.2,11,9.35,3.15,2.73,3.49,5.55,1,9.14-4.32,6.2-3,9.35,3.06,14.61a136.9,136.9,0,0,1,16.75,17.38c4,5,2.49,9.38-4,13,3.14,6,6.25,12.06,9.49,18.05,1.1,2,3,3.74,3.68,5.87s1.28,6.49.43,6.92c-2.67,1.34-6.72,2.66-9,1.53-6.12-3-11.59-7.37-18-11.66a20.83,20.83,0,0,0,1.53,3c12.55,16.09,29.25,27.84,43.76,41.87a79.12,79.12,0,0,1,19,29.45c2.6,6.92,6.27,13.69,5.08,21.55-.17,1.15.18,2.91-.45,3.36-5,3.57-3.6,8.09-1.45,12.08s5.21,7.25,7.94,10.78c7.18,9.27,14.53,18.42,21.54,27.82,3.94,5.28,7.52,10.86,10.94,16.51,4,6.61,7.63,13.46,11.49,20.16a48.63,48.63,0,0,0,5.06,7.94c5.33,6.1,7.57,13.25,9.13,21.05.91,4.51,4.08,8.56,6.2,12.83a15.58,15.58,0,0,1,1.39,3.2c1.28,5.39-1.57,8.09-6.91,6.53-2.23-.64-4.35-1.67-6.59-2.26-2.63-.69-5.32-1.09-8-1.62l-1.37,1.28q6.39,15.48,12.78,31c.37.9,1.26,1.85,1.14,2.66-1.57,10.12,4,18.16,7.84,26.63,5,11.13,10.82,21.9,15.73,33.08,1.46,3.31,1.51,7.48,1.33,11.21-.19,3.95-3.81,4.47-6.35,3.11-4.88-2.61-9.31-6.08-13.93-9.19l-10-6.76-1,.85c3.68,5.39,7.5,10.68,11,16.18,8.09,12.7,16,25.51,24,38.27,4.22,6.73,8.27,13.57,12.73,20.15a34.5,34.5,0,0,1,5.73,19.73c0,5-.75,9.92-.63,14.86,0,1.93,1.5,3.84,2.37,5.73,2.14,4.63,4.5,9.16,6.39,13.88a77.74,77.74,0,0,1,2.81,9.9c1.68,6.55,3.47,13.08,4.8,19.69.34,1.65-.34,4.37-1.53,5.21s-4.06.62-5.4-.3a58.09,58.09,0,0,1-10.32-8.54q-16.71-18.26-33-36.94c-3.06-3.49-5.55-7.47-8.73-10.89,3.36,9.07,7,18.07,10,27.25a47.18,47.18,0,0,1,2.12,12.62c.18,4.32-2.78,5.92-6.7,3.79a61.84,61.84,0,0,1-9-6.13c-4.6-3.7-9.17-7.46-13.38-11.58a72.67,72.67,0,0,1-8.06-9.91c-5.91-8.34-11.68-16.79-17.39-25.27-1.08-1.6-1.46-3.64-2.42-5.34s-2.25-3.22-3.39-4.83l-1.29.75c-.09,1.3-.23,2.59-.27,3.89-.09,3.56-2.24,4.58-5.34,4.28-1.79-.18-3.59-.94-5.33-.81-5.53.41-9.14-1.38-11.9-6.66-2.36-4.52-6.62-8-9.8-12.16-2-2.6-3.53-5.55-5.61-8.87,0,4.53-.13,8.18,0,11.81.25,5.49-3.36,8.67-7.26,11.1-1.32.82-5.25-.23-6.29-1.66-4.81-6.66-9-13.76-13.47-20.67a5.11,5.11,0,0,0-2.3-2.11c-13.19-4.23-20.85-14.4-27.66-25.53C906.32,1394.27,900.12,1384.27,894.45,1375.07Z" transform="translate(-663.25 -826.46)"/></svg>